<?xml version="1.0" encoding="UTF-8" standalone="no"?>
<svg
   width="283.465"
   height="667.89001"
   version="1.1"
   id="svg358"
   sodipodi:docname="Storch.svg"
   inkscape:version="1.1.2 (0a00cf5339, 2022-02-04)"
   xmlns:inkscape="http://www.inkscape.org/namespaces/inkscape"
   xmlns:sodipodi="http://sodipodi.sourceforge.net/DTD/sodipodi-0.dtd"
   xmlns="http://www.w3.org/2000/svg"
   xmlns:svg="http://www.w3.org/2000/svg">
  <defs
     id="defs362" />
  <sodipodi:namedview
     id="namedview360"
     pagecolor="#ffffff"
     bordercolor="#666666"
     borderopacity="1.0"
     inkscape:pageshadow="2"
     inkscape:pageopacity="0.0"
     inkscape:pagecheckerboard="0"
     showgrid="true"
     inkscape:zoom="0.64"
     inkscape:cx="-236.71875"
     inkscape:cy="385.15625"
     inkscape:window-width="1846"
     inkscape:window-height="1016"
     inkscape:window-x="74"
     inkscape:window-y="27"
     inkscape:window-maximized="1"
     inkscape:current-layer="layer4"
     fit-margin-left="0"
     lock-margins="false"
     fit-margin-bottom="30" />
  <g
     inkscape:groupmode="layer"
     id="layer3"
     inkscape:label="Layer 1" />
  <g
     inkscape:groupmode="layer"
     id="layer4"
     inkscape:label="Layer 2"
     style="display:inline">
    <path
       d="m 95.346208,468.46852 c 1.289441,1.83428 12.162622,5.29423 28.381762,8.89805 16.21916,3.20819 33.08652,15.87549 46.20404,11.96955 8.87279,-2.6471 18.49833,-26.23376 18.49833,-29.73687 v -0.35966 c 0,-2.44571 -1.77735,-4.40946 -4.79535,-6.04233 -12.37172,-6.52428 -14.71363,-8.92682 -19.29989,-7.62484 -23.80945,6.78323 -65.845428,3.31608 -68.988892,22.8961 z"
       style="fill:#380d09;fill-rule:evenodd;stroke-width:0.708072"
       id="path14" />
    <path
       d="m 95.346208,516.36116 c 1.289441,1.86305 12.162622,5.29423 28.381762,8.90524 18.12196,3.40959 33.88111,14.52316 47.00558,10.61004 8.87279,-2.64712 17.69679,-24.87425 17.69679,-28.38456 v -0.34527 c 0,-2.43851 -1.77735,-4.40946 -4.79535,-6.03513 -9.43735,-5.17914 -21.90666,-10.88339 -26.48594,-9.58141 -23.85128,6.76884 -55.73199,8.25785 -61.802842,24.83109 z"
       style="fill:#380d09;fill-rule:evenodd;stroke-width:0.708072"
       id="path16" />
    <path
       fill="#f06312"
       fill-rule="evenodd"
       d="m 56.267,182.46759 c 2.69,1.86359 5.24,3.5201 10.32,3.5201 1.99,0 2.21,-1.29814 2.95,-2.34143 l -4.46,-1.11496 0.03,-2.4131 c 0.88,-2.61221 0.35,-3.52011 4.43,-3.52011 4.52,0 6.37,2.89891 7.37,5.8695 l 1.47,10.56828 2.95,1.95915 4.43,0.39023 4.42,-12.91766 c 0,-8.60912 -6.44,-15.26705 -16.22,-15.26705 h -2.95 c -7.09,0 -16.22,3.22543 -16.22,8.21888 v 1.17867 c 0,3.16969 0.71,3.2334 1.48,5.8695 z M 91.657,72.078111 v 3.520103 c 0,9.716122 8.62,22.960311 16.22,27.013996 -0.6,-5.694276 -2.95,-7.366723 -2.95,-14.096332 v -5.869493 c 0,-15.505975 23.59,-34.22942 23.59,-55.198721 0,-5.590752 -1.18,-9.939115 -4.42,-12.917664 -0.48,17.07489 -7.23,18.603984 -16.51,27.961725 -4.72,4.754528 -15.93,22.291331 -15.93,29.586386 z m 88.47,61.068219 c -4.9,-14.6148 -45.709,-37.494678 -45.709,-64.596286 0,-6.51458 5.479,-13.610535 8.85,-17.608479 -10.45,2.214 -26.55,20.499423 -26.55,31.70482 v 3.520103 c 0,26.010542 18.48,36.905332 29.499,55.198722 v 4.69878 l -12.699,-6.52255 -0.57,35.87798 -14.75,21.14451 7.37,3.5201 c 3.59,-3.90237 12.569,-15.78471 16.22,-14.09634 5.169,6.49069 -2.699,21.55068 8.849,22.31522 1.811,-5.39164 4.42,-2.96262 4.42,-7.04816 l 0.32,-3.11394 6.811,-3.15376 4.67,10.96647 h 2.949 v -3.5201 h 2.951 v 2.34939 l 5.609,-16.64483 3.24,13.11677 22.119,1.17867 1.461,0.14336 5.91,-0.14336 v 14.08838 l 3.391,-19.92602 c 0.439,-7.4384 -4.191,-15.92806 -4.871,-22.34707 -6.289,-10.44882 -19.15,-35.59128 -29.49,-41.10238 z m 38.34,39.9237 8.801,-2.54849 1.109,1.48131 1.891,-1.28221 -9.301,-13.4194 -2.82,5.1368 -2.629,0.0637 -6.98,-24.48941 c -0.82,2.22197 -1.869,5.24034 -1.869,9.22235 -0.001,8.15517 7.348,20.73835 11.798,25.83533 z"
       clip-rule="evenodd"
       id="path328"
       style="stroke-width:0.892415" />
    <path
       fill="#e19c1b"
       d="m 85.758,195.38525 -4.431,-0.39023 -2.95,-1.95915 -7.03,16.53333 z"
       id="path330"
       style="stroke-width:0.892415" />
    <path
       fill="#f4c202"
       fill-rule="evenodd"
       d="m 125.568,200.08403 c -6.48,7.70122 -31.02,28.48735 -44.24,29.35543 l -10.18,2.81928 -0.14,-2.81928 c -8.67,1.60874 -12.28,11.48414 -17.69,16.44574 l -11.8,2.34939 c -8.32,13.80166 10.23,31.63314 16.22,38.75298 l 1.23,1.36982 1.72,0.97878 6.08,1.16354 -1.66,-7.03224 1.17,-17.72793 1.78,0.11149 c 0.31,10.84701 8.91,19.973 17.76,24.92742 l 7.31,-1.44228 v -4.69799 l 1.63,0.78765 14.59,-17.22541 12.07,-8.19579 -1.75,11.71589 -0.07,2.24586 -2.88,1.27425 v 3.52806 h 5.9 c 2.82,-4.24483 8.67,-6.9526 13.189,-10.63199 4.301,-3.50417 7.871,-8.33117 11.691,-11.83455 5.949,-5.4474 16.969,-20.44368 17.889,-29.20411 l -2.879,-1.27425 -1.551,-16.3422 v -7.04817 c -7.49,0.65306 -13.42,18.69955 -26.54,21.13655 4.431,-15.13166 7.37,-16.55723 7.37,-37.58228 -3.65,-1.68837 -12.63,10.19397 -16.219,14.09634 z m 103.219,62.23814 c -2.949,3.5201 -8.969,9.40632 -11.35,13.27604 -4.961,8.05164 -11.75,10.2099 -12.24,13.73796 h 17.699 c 15.262,-8.14642 8.9,-14.41491 13.271,-29.3626 z m -53.08,-19.96504 -12.779,26.71933 c 17.82,0 28.959,-18.09428 36.369,-19.67116 0,15.68914 -16.809,31.78445 -22.119,43.45097 l 7.379,-1.16992 c 6.33,-4.38021 18.031,-5.16069 20.641,-14.09713 10.59,-0.70004 13.52,-14.78125 19.17,-19.96504 v -1.17071 l 3.01,-14.08838 -4.52,-1.11496 -2.279,3.77494 -0.631,-5.00937 h -5.9 l -1.609,8.19499 -7.881,-5.28015 -3.25,2.22993 -2.189,-5.10495 -4.24,-0.0398 -5.289,4.23686 -0.611,-4.23686 h -4.42 v -2.34939 z"
       clip-rule="evenodd"
       id="path332"
       style="stroke-width:0.892415" />
    <path
       fill="#e67745"
       d="m 172.758,277.58922 -11.801,4.69877 c -2.84,1.96792 -9.65,5.87826 -14.74,5.87826 h -4.429 l 1.48,-4.69878 v -3.52807 l 4.42,-3.5201 -2.869,-1.35468 c -1.932,5.70225 -26.121,15.45023 -35.471,15.45023 -3.12,0 -1.94,-0.4213 -5.9,-1.17868 l 3.11,-11.70633 -10.48,14.05651 1.47,2.3486 11.8,2.34939 30.15,-9.15068 -3.88,5.71101 1.75,3.43967 16.22,-3.52887 16.01,-5.83763 1.689,3.49701 19.75,-24.35403 z"
       id="path334"
       style="stroke-width:0.892415" />
    <path
       fill="#fceab5"
       fill-rule="evenodd"
       d="m 147.687,276.42009 -4.42,3.52011 v 3.52807 l -1.48,4.69878 h 4.429 c 5.09,0 11.9,-3.91034 14.74,-5.87826 l 11.801,-4.69877 -5.27,-3.43967 -1.512,0.86011 0.881,-2.11843 -10.32,-1.15478 -7.369,-0.0159 z m 54.561,15.26706 -1.602,2.28488 -23.469,0.0637 -5.891,-3.52808 -1.689,-3.48904 -16.01,5.83764 11.799,1.17868 v 5.86949 h -39.819 l 0.01,-4.72347 11.79,1.20337 -1.75,-3.43967 3.88,-5.71101 -30.15,9.15068 -11.8,-2.34939 h -32.44 l 2.97,4.68364 -1.49,2.36453 h 144.51 l 10.32,-10.57545 z"
       clip-rule="evenodd"
       id="path336"
       style="stroke-width:0.892415" />
    <path
       fill="#fdfdff"
       d="m 137.367,296.38514 -11.79,-1.20338 -0.009,4.72348 h 39.818 v -5.86949 l -11.798,-1.17948 z"
       id="path338"
       style="stroke-width:0.892415" />
    <path
       fill="#a45510"
       fill-rule="evenodd"
       d="m 42.997,322.22047 1.47,1.17071 h 5.9 c -1.54,-2.30958 -2.95,-3.46516 -2.95,-7.04897 v -8.21889 c 0,-3.16889 -0.71,-3.2326 -1.44,-5.70145 l 4.39,-1.34592 -17.7,1.17868 -1.59,19.96584 z"
       clip-rule="evenodd"
       id="path340"
       style="stroke-width:0.892415" />
    <path
       fill="#f06312"
       d="m 73.957,323.39118 h 16.22 c 15.23,-8.42595 4.97,-14.8139 11.76,-19.74284 l -14.71,-1.39371 -1.6,2.28488 3.29,3.44843 -1.55,-0.16645 -4.63,12.86988 1.55,0.38944 z"
       id="path342"
       style="stroke-width:0.892415" />
    <path
       fill="#c37b15"
       d="m 87.227,302.25463 14.71,1.39371 c -6.79,4.92894 3.47,11.31689 -11.76,19.74284 h 23.6 v -3.5209 l -5.19,-3.98202 c 0.71,-1.5291 0.85,-0.80437 0.84,-0.80437 0,0 -0.08,-0.37431 -0.08,-2.26178 v -7.04818 l 4.43,-3.5201 v -1.1715 h -41.29 z"
       id="path344"
       style="stroke-width:0.892415" />
    <path
       fill="#f9d67a"
       fill-rule="evenodd"
       d="m 172.758,204.78281 -7.371,22.31523 c -0.92,8.76043 -11.939,23.75671 -17.889,29.20411 -3.82,3.50338 -7.39,8.33038 -11.691,11.82739 -4.52,3.68655 -10.369,6.39432 -13.189,10.63915 -3.23,2.23869 -3.29,3.15375 -9.24,3.4333 l 3.34,-6.96057 c 0.78,-2.62892 1.48,-2.70061 1.48,-5.86949 l -0.33,-6.13231 -5.57,4.96159 h -2.95 l -14.59,17.22541 -1.63,-0.78764 v 4.69798 l -7.31,1.44229 c -8.85,-4.95443 -17.45,-14.08042 -17.76,-24.92743 l -1.78,-0.10353 -1.17,17.71998 1.66,7.03224 -6.08,-1.16355 4.42,4.69879 h 32.44 l -1.47,-2.3486 10.48,-14.05652 -3.11,11.70633 c 3.96,0.75739 2.78,1.17151 5.9,1.17151 9.35,0 33.539,-9.74001 35.471,-15.44305 l 2.869,1.35467 1.48,-4.69878 7.369,0.0159 10.32,1.16274 -0.881,2.11047 1.512,-0.86011 5.27,3.43967 18.279,-11.4284 -19.75,24.34605 5.891,3.52808 23.469,-0.0637 1.602,-2.28488 19.17,-1.17868 1.479,-1.17151 h -17.699 c 0.49,-3.52806 7.279,-5.68632 12.24,-13.73796 2.381,-3.86972 8.4,-9.75594 11.35,-13.27604 h -4.42 v -4.69082 c -5.65,5.17663 -8.58,19.25784 -19.17,19.95788 -2.609,8.93644 -14.311,9.71692 -20.641,14.09713 l -7.379,1.16991 c 5.311,-11.66651 22.119,-27.76181 22.119,-43.45097 -7.41,1.57609 -18.549,19.67117 -36.369,19.67117 l 12.779,-26.71138 5.9,-41.11033 -3.24,-13.11677 z M 51.838,317.52168 h 2.95 v -16.43776 h -2.95 z m 33.92,58.71883 c 5.36,-1.41839 -2.01,-5.9571 -5.53,-9.69223 -1.72,-1.82456 -7.51,-9.62932 -8.78,-11.79553 -4.83,-8.22685 -6.49,-20.64278 -9.29,-30.1837 h -2.94 c 0,26.71297 13.5,36.16548 26.54,51.67146 z"
       clip-rule="evenodd"
       id="path346"
       style="stroke-width:0.892415" />
    <path
       fill="#c37b15"
       d="m 110.827,390.32888 4.42,3.52807 28.02,2.34939 h 7.369 c 9.91,0 17.791,-3.3449 28.021,-3.52807 3.148,-6.92871 61.93,-16.14389 61.93,-68.10922 h -7.371 c 0,48.79644 -67.779,62.19115 -70.779,68.10922 h -7.381 c 4.99,-3.44843 15.65,-6.09248 22.4,-10.34528 7.291,-4.59604 10.99,-7.81989 17.02,-13.45842 11.23,-10.48864 12.191,-25.04768 12.191,-44.30472 h -98.791 c -1.64,5.59872 -7.38,10.09044 -7.38,15.26705 v 11.739 c 0,12.2646 6.32,9.82761 7.38,19.96582 6.45,0.43006 10.28,6.4907 13.84,10.11353 3.721,3.79965 12.041,6.24461 12.59,11.54785 z"
       id="path348"
       style="stroke-width:0.892415" />
    <path
       fill="#e19c1b"
       fill-rule="evenodd"
       d="m 118.198,269.37113 c 0,3.16889 -0.7,3.24057 -1.48,5.8695 l 2.88,-1.27425 0.07,-2.24586 1.75,-11.71589 -12.07,8.19579 h 2.95 l 5.57,-4.96159 z m -1.48,9.39756 v -3.52806 l -3.34,6.96055 c 5.95,-0.27953 6.01,-1.1946 9.24,-3.43329 h -5.9 z m 101.749,-105.69866 2.951,8.22684 v 15.26706 l 12.369,-7.72512 -0.57,-4.02183 -2.949,-14.09634 -1.891,1.28221 -1.109,-1.48131 z m -57.51,36.41156 1.551,16.3422 2.879,1.27425 7.371,-22.31523 v -2.34939 h -2.951 v 3.5201 h -2.949 l -4.67,-10.96647 -6.811,3.15376 -0.32,3.11394 c 0,4.08554 -2.609,1.65652 -4.42,7.04816 -11.548,-0.76454 -3.68,-15.82453 -8.849,-22.31522 0,21.02505 -2.939,22.45062 -7.37,37.58228 13.12,-2.437 19.049,-20.48349 26.54,-21.13655 v 7.04817 z m -79.63,19.95787 c 13.22,-0.86808 37.76,-21.65421 44.24,-29.35543 l -7.37,-3.5201 c -3.4,4.03776 -15.06,14.79717 -22.12,15.26706 6.12,-10.16212 4.42,-7.25525 4.42,-19.96584 -7.67,7.02428 -9.07,13.13269 -20.37,20.18086 -11.3,7.05614 -14.22,7.68529 -22.39,17.39345 -13.13,7.00836 -9.31,8.40206 -16.22,18.79513 l 11.8,-2.34939 c 5.41,-4.9616 9.02,-14.837 17.69,-16.44574 l 0.14,2.81928 z m 94.38,12.91767 8.85,-4.69082 v 2.34939 h 4.42 l 0.611,4.23686 5.289,-4.23686 4.24,0.0398 2.189,5.10495 3.25,-2.22993 7.881,5.28015 1.609,-8.19499 h 5.9 l 0.631,5.00937 2.279,-3.77494 4.52,1.11496 -3.01,14.08838 2.871,-1.27504 c 0.279,-7.12781 5.979,-13.82557 5.979,-18.69159 V 208.3021 c 0,-2.26975 -0.469,-2.08658 -1.479,-3.5201 -6.58,3.83866 -8.25,16.78818 -20.641,17.61644 V 202.4326 l -5.91,0.14336 -1.461,-0.14336 -22.119,-1.17867 z m -120.92,72.81516 v 2.34939 h -2.95 l 1.48,5.8695 h 20.64 l 10.33,-2.30958 -1.55,-0.38943 4.63,-12.86989 1.55,0.15848 -3.29,-3.44045 1.6,-2.28489 -14.74,-1.1715 h -17.7 z m 30.971,61.06822 25.07,14.09554 23.479,2.86705 c -0.549,-5.30324 -8.869,-7.7482 -12.59,-11.53908 -3.56,-3.6316 -7.39,-9.69224 -13.84,-10.1223 -1.06,-10.13821 -7.38,-7.70122 -7.38,-19.96582 v -11.739 c 0,-5.16865 5.74,-9.66833 7.38,-15.26705 h -45.72 c 2.8,9.54092 4.46,21.95684 9.29,30.1837 1.27,2.1662 7.06,9.97096 8.78,11.79553 3.52,3.73433 10.89,8.27304 5.531,9.69143 z m 45.709,285.37603 h 5.9 l -7.37,-253.67121 -10.33,-5.86949 z"
       clip-rule="evenodd"
       id="path350"
       style="stroke-width:0.892415" />
    <path
       d="m 95.213778,478.76205 v 0.34528 0 a 2.5998041,2.6830811 0 0 1 0,-0.34528 z"
       style="fill:#555555;fill-rule:evenodd;stroke-width:0.708072"
       id="path18" />
    <path
       fill="#8c3b0b"
       fill-rule="evenodd"
       d="m 118.198,323.39118 h -73.73 c 0,24.12306 19.89,53.31124 39.81,57.54811 -5.65,-6.72165 -0.66,-6.1801 -10.34,-11.72306 -4.5,-2.58034 -7.62,-7.27992 -9.43,-12.46372 -3.23,-9.26217 -9.72,-22.5852 -9.72,-32.18266 h 185.801 v -2.34859 h 11.799 V 302.25542 H 231.74 v 21.13655 h -19.17 c -2.432,0 -2.861,0.0717 -2.881,0.0239 -0.029,-0.0637 0.67,-0.31857 -1.541,-1.19461 v -2.35018 h 2.951 v -14.09635 l -38.33,0.55668 -5.91,-0.55668 v -3.5201 h -29.49 v 1.17868 h 11.8 l -5.471,9.00731 2.66,-0.24688 3.75,6.13947 -3.891,0.36715 v 3.52011 l 3.17,0.64508 z m -2.951,70.46577 -2.87,1.27424 7.29,6.94544 10.33,5.86949 28.889,8.50559 0.451,-1.45662 -7.691,245.4356 c 11.441,-0.71676 4.701,-20.26846 6.682,-30.27129 1.92,-9.74798 -0.24,-23.59026 2.039,-33.60026 3.92,-17.1394 0.76,-49.4248 3.109,-64.6361 3.512,-22.72936 -1.979,-116.99963 10.75,-128.67411 l -13.27,257.18972 c 5.18,-4.74656 17.701,-240.697 17.701,-267.75879 -10.23,0.18238 -18.111,3.52808 -28.021,3.52808 h -7.369 z"
       clip-rule="evenodd"
       id="path356"
       style="stroke-width:0.892415" />
    <path
       fill="#a45510"
       fill-rule="evenodd"
       d="m 118.198,323.39118 31.189,-0.52563 -3.17,-0.64508 v -3.52011 l 3.891,-0.36715 -3.75,-6.13947 -2.66,0.24688 5.471,-9.00731 h -11.8 v -1.17868 h 29.49 v 3.5201 l 5.91,0.55668 38.33,-0.55668 v 14.09555 h -2.951 v 2.35019 c 3.891,1.52909 -1.209,1.17071 4.422,1.17071 h 19.17 v -21.13655 l -20.641,-1.17151 h -97.32 v 1.17151 l -4.43,3.5201 v 7.04817 c 0,1.6167 0.06,2.1264 0.08,2.23869 -0.03,-0.11946 -0.22,-0.51766 -0.84,0.82746 l 5.19,3.98203 v 3.52089 h 4.419 z m 115.019,1.17867 h -26.549 c 0,19.25704 -0.961,33.81608 -12.191,44.30472 -6.029,5.63853 -9.729,8.86317 -17.02,13.45842 -6.75,4.2528 -17.41,6.89685 -22.4,10.35324 h 7.381 c 2.999,-5.92603 70.779,-19.32074 70.779,-68.11638 z m -103.22,83.37548 7.37,253.66245 23.589,-1.17072 13.27,-257.18972 c -12.729,11.67448 -7.238,105.94475 -10.75,128.6741 -2.35,15.2121 0.811,47.4975 -3.109,64.62735 -2.279,10.01875 -0.119,23.86104 -2.039,33.60026 -1.98,10.01079 4.76,29.5625 -6.682,30.28005 l 7.691,-245.4356 -0.451,1.45662 z"
       clip-rule="evenodd"
       id="path352"
       style="stroke-width:0.892415" />
    <path
       fill="#c37b15"
       fill-rule="evenodd"
       d="m 50.367,323.39118 h 2.95 l -1.48,-5.8695 v -16.43856 h -1.47 l -4.39,1.33875 c 0.73,2.46965 1.44,2.53256 1.44,5.70145 v 8.22685 c 0,3.57665 1.41,4.7394 2.95,7.04101 z m 33.911,57.54811 20.59,9.48516 13.41,266.48455 5.49,4.96079 7.699,-0.25405 -11.8,-259.5407 -7.29,-6.94544 2.87,-1.27424 -4.42,-3.52011 -25.07,-14.09554 c -13.04,-15.50677 -26.54,-24.95928 -26.54,-51.67146 h -4.43 c 0,9.59747 6.49,22.9205 9.72,32.18267 1.81,5.18459 4.93,9.88336 9.43,12.46372 9.68,5.54455 4.69,5.00221 10.341,11.72465 z"
       clip-rule="evenodd"
       id="path354"
       style="stroke-width:0.892415" />
  </g>
  <g
     inkscape:groupmode="layer"
     id="layer5"
     inkscape:label="Layer 3">
    <path
       d="m 170.6987,420.95713 c -21.92756,6.53865 -56.71476,10.22879 -75.457043,10.22879 v 0 36.93732 a 0.55759872,0.57545972 0 0 0 0.132431,0.34528 c 12.789912,0 52.274872,-4.31594 76.098282,-11.0776 a 89.912798,92.79289 0 0 0 12.1905,-4.17928 c 2.91345,-1.35233 4.79535,-2.77658 4.79535,-4.2584 v -37.25382 c -0.0279,3.51031 -8.88673,6.61778 -17.75952,9.25771 z"
       style="fill:#de3423;fill-rule:evenodd;stroke-width:0.708072"
       id="path20" />
    <path
       d="m 170.6987,468.85696 c -13.12448,3.90593 -30.8352,6.81201 -46.97073,8.50961 -10.83134,1.14373 -20.95176,1.74076 -28.486313,1.74076 v 0 36.90855 a 0.55759872,0.57545972 0 0 0 0.132431,0.34528 c 12.789912,0 52.274872,-4.31595 76.098282,-11.0704 a 90.874654,93.785553 0 0 0 12.1905,-4.17928 c 2.91345,-1.35953 4.79535,-2.77659 4.79535,-4.25841 v -37.25382 c -0.0279,3.50311 -8.88673,6.61059 -17.75952,9.25771 z"
       style="fill:#de3423;fill-rule:evenodd;stroke-width:0.708072"
       id="path22" />
    <path
       d="m 170.6987,516.78556 c -13.12448,3.90593 -30.8352,6.80481 -46.97073,8.50962 -10.84528,1.14372 -20.97964,1.74075 -28.514192,1.74075 v 37.22506 c 12.657482,0 52.344582,-4.27998 76.230712,-11.07041 8.80309,-2.50324 16.98585,-5.35177 16.98585,-8.44487 v -37.25383 c 0,3.53909 -8.85885,6.61779 -17.73164,9.29368 z"
       style="fill:#de3423;fill-rule:evenodd;stroke-width:0.708072"
       id="path24" />
  </g>
</svg>
